<svg height="512pt" viewBox="0 0 512 512" width="512pt" xmlns="http://www.w3.org/2000/svg"><path d="m477.867188 376.320312v-26.453124c.203124-90.921876-57.484376-171.890626-143.488282-201.386719v-.417969c-.597656-4.3125-.429687-8.699219.496094-12.953125 2.277344-3.445313 5.132812-6.46875 8.4375-8.945313 6.714844-5.929687 15.085938-13.257812 15.085938-23.765624 0-10.503907-8.371094-17.832032-15.101563-23.722657-3.308594-2.472656-6.160156-5.496093-8.441406-8.941406-.925781-4.253906-1.089844-8.640625-.492188-12.953125 1.996094-9.375-.183593-19.15625-5.976562-26.796875-7.632813-5.792969-17.410157-7.972656-26.785157-5.972656-4.3125.59375-8.695312.425781-12.953124-.492188-3.433594-2.273437-6.453126-5.121093-8.925782-8.414062-5.886718-6.734375-13.21875-15.105469-23.722656-15.105469s-17.835938 8.371094-23.722656 15.105469c-2.472656 3.304687-5.5 6.160156-8.941406 8.4375-4.257813.929687-8.640626 1.097656-12.957032.496093-9.375-2-19.15625.179688-26.792968 5.972657-5.789063 7.636719-7.96875 17.414062-5.972657 26.785156.597657 4.3125.429688 8.699219-.496093 12.953125-2.273438 3.4375-5.117188 6.457031-8.414063 8.925781-6.730469 5.890625-15.101563 13.21875-15.101563 23.722657 0 10.507812 8.371094 17.835937 15.101563 23.722656 3.308594 2.476562 6.160156 5.5 8.441406 8.945312.925781 4.253906 1.089844 8.640625.492188 12.953125v.417969c-86.023438 29.496094-143.726563 110.488281-143.503907 201.429688v26.453124c-19.851562 4.082032-34.1054682 21.546876-34.132812 41.8125v51.199219c.0273438 23.554688 19.113281 42.640625 42.667969 42.667969h426.664062c23.554688-.027344 42.640625-19.113281 42.667969-42.667969v-51.199219c-.027344-20.265624-14.28125-37.730468-34.132812-41.8125zm-17.066407-26.453124v25.597656h-85.335937v-25.597656c0-70.484376-17.875-134.375-48.210938-174.082032.382813-.324218.792969-.585937 1.160156-.953125 2.359376-2.398437 4.066407-5.359375 4.964844-8.601562 76.753906 28.46875 127.617188 101.773437 127.421875 183.636719zm-162.132812 25.597656h-34.132813v-172.679688c5.898438-3.285156 11.066406-7.738281 15.1875-13.089844 2.472656-3.304687 5.5-6.160156 8.941406-8.4375 4.257813-.929687 8.640626-1.097656 12.957032-.496093 2.558594.160156 5.28125.308593 7.960937.296875 30.164063 35.6875 48.816407 99.773437 48.816407 168.808594v25.597656zm-145.066407 0v-25.597656c0-69.035157 18.652344-133.121094 48.824219-168.808594 2.679688 0 5.359375-.144532 7.953125-.296875 4.316406-.601563 8.699219-.433594 12.957032.496093 3.441406 2.277344 6.46875 5.132813 8.941406 8.4375 4.121094 5.351563 9.289062 9.804688 15.1875 13.089844v172.679688zm17.066407-273.066406c0-2.761719 5.359375-7.449219 9.273437-10.871094 5.421875-4.039063 9.851563-9.253906 12.964844-15.257813 2.132812-6.625 2.738281-13.644531 1.765625-20.539062-.292969-4.761719-.726563-11.945313.988281-13.652344s8.910156-1.28125 13.652344-.988281c6.894531.96875 13.917969.363281 20.542969-1.769532 6-3.109374 11.21875-7.539062 15.257812-12.960937 3.4375-3.933594 8.121094-9.292969 10.886719-9.292969s7.449219 5.359375 10.871094 9.277344c4.039062 5.417969 9.257812 9.851562 15.257812 12.960938 6.625 2.132812 13.648438 2.734374 20.539063 1.765624 4.761719-.289062 11.949219-.734374 13.652343.992188 1.707032 1.722656 1.28125 8.90625.992188 13.652344-.972656 6.890625-.371094 13.914062 1.765625 20.539062 3.109375 6 7.542969 11.21875 12.960937 15.257813 3.917969 3.414062 9.277344 8.105469 9.277344 10.871093 0 2.765626-5.359375 7.449219-9.277344 10.871094-5.417968 4.039063-9.851562 9.257813-12.960937 15.257813-2.136719 6.625-2.738281 13.648437-1.765625 20.539062.289062 4.761719.726562 11.949219-.992188 13.652344-1.714843 1.707031-8.925781 1.273437-13.652343.992187-6.890625-.96875-13.914063-.367187-20.539063 1.765626-6 3.109374-11.21875 7.542968-15.257812 12.960937-3.421875 3.953125-8.105469 9.3125-10.871094 9.3125s-7.449219-5.359375-10.871094-9.277344c-4.039062-5.417969-9.257812-9.851562-15.257812-12.960937-4.03125-1.527344-8.324219-2.242188-12.628906-2.101563-2.628907 0-5.292969.164063-7.910157.335938-4.78125.28125-11.949219.714843-13.652343-.992188-1.707032-1.707031-1.28125-8.90625-.992188-13.652343.972656-6.890626.371094-13.914063-1.765625-20.539063-3.109375-6.003906-7.542969-11.21875-12.960937-15.257813-3.933594-3.441406-9.292969-8.125-9.292969-10.890624zm-119.46875 247.46875c-.207031-81.871094 50.660156-155.191407 127.421875-183.664063.898437 3.246094 2.609375 6.210937 4.972656 8.609375.359375.367188.769531.625 1.152344.949219-2.125 2.78125-4.171875 5.683593-6.167969 8.6875-66.96875 27.601562-110.570313 92.984375-110.3125 165.417969 0 4.710937 3.820313 8.53125 8.535156 8.53125 4.710938 0 8.53125-3.820313 8.53125-8.53125-.210937-56.960938 29.652344-109.804688 78.558594-139.007813-18.84375 43.878906-28.167969 91.257813-27.355469 139.007813v25.597656h-85.335937zm-34.132813 119.464843v-51.199219c0-14.136718 11.460938-25.597656 25.601563-25.597656h51.421875c-5.648438 7.339844-8.726563 16.335938-8.757813 25.597656v51.199219c.03125 9.265625 3.109375 18.257813 8.757813 25.601563h-51.421875c-14.140625 0-25.601563-11.460938-25.601563-25.601563zm85.332032 0v-51.199219c0-14.136718 11.464843-25.597656 25.601562-25.597656h51.421875c-5.648437 7.339844-8.722656 16.335938-8.753906 25.597656v51.199219c.03125 9.265625 3.105469 18.257813 8.753906 25.601563h-51.421875c-14.136719 0-25.601562-11.460938-25.601562-25.601563zm85.335937 0v-51.199219c0-14.136718 11.460937-25.597656 25.597656-25.597656h34.132813v102.398438h-34.132813c-14.136719 0-25.597656-11.460938-25.597656-25.601563zm76.800781 25.601563v-102.398438h34.132813c14.136719 0 25.597656 11.460938 25.597656 25.597656v51.199219c0 14.140625-11.460937 25.601563-25.597656 25.601563zm68.042969 0c5.648437-7.34375 8.722656-16.335938 8.753906-25.601563v-51.199219c-.03125-9.261718-3.105469-18.257812-8.753906-25.597656h51.421875c14.136719 0 25.601562 11.460938 25.601562 25.597656v51.199219c0 14.140625-11.464843 25.601563-25.601562 25.601563zm162.355469-25.601563c0 14.140625-11.460938 25.601563-25.601563 25.601563h-51.421875c5.648438-7.34375 8.726563-16.335938 8.757813-25.601563v-51.199219c-.03125-9.261718-3.109375-18.257812-8.757813-25.597656h51.421875c14.140625 0 25.601563 11.460938 25.601563 25.597656zm0 0"/></svg>